<svg width="22" height="22" viewBox="0 0 22 22" fill="none" xmlns="http://www.w3.org/2000/svg">
<path fill-rule="evenodd" clip-rule="evenodd" d="M10.8512 0.0049763L10.7397 0.0104604C5.35965 0.153868 0.923677 4.08573 0.117977 9.42397C0.0418358 9.92845 0.00325197 10.4327 0.000197593 10.9335C6.62851e-05 10.9556 5.04712e-07 10.9778 5.04712e-07 11V10.9948C-7.27054e-07 10.9988 2.95897e-07 11.0028 3.57254e-06 11.0068C0.00262982 14.2058 1.45306 17.2581 3.82152 19.3351C4.84901 20.2361 6.04929 20.9536 7.37908 21.4198C8.37738 21.7698 9.31652 21.9264 10.3098 21.9787C10.5608 21.9919 10.8153 21.9984 11.075 21.9998L11 22C11.025 22 11.05 21.9999 11.075 21.9998C11.1425 22.0001 11.2104 22.0001 11.2787 21.9997C11.4601 21.9942 11.641 21.9842 11.8212 21.9698C13.7894 21.8124 15.672 21.1298 17.2674 20.0411C19.2937 18.6583 20.8568 16.6203 21.5438 14.1711C21.5884 14.0121 21.6297 13.8529 21.6678 13.6936C21.8862 12.7799 21.9968 11.8641 21.9999 10.9611C22.0102 7.97333 20.8439 5.12443 18.5106 2.94613C17.9335 2.40741 17.2825 1.92765 16.5823 1.5197C15.7645 1.04324 14.8795 0.664735 13.9665 0.404639C13.0201 0.135044 12.0437 -0.00733333 11.0809 0.000291026C11.0539 9.71189e-05 11.027 3.84642e-10 11 3.84642e-10L11.0809 0.000291026C11.0042 0.000898069 10.9276 0.00245599 10.8512 0.0049763ZM13.7919 7.09179C14.2657 6.58505 14.9071 5.89913 15.3543 5.75894C15.831 5.68567 16.4312 6.44807 16.4312 6.44807C16.4312 6.44807 17.3365 7.21816 17.4609 7.80029C17.3661 8.18717 17.0157 8.50436 16.7004 8.78978L16.7004 8.78979C16.6047 8.87638 16.5122 8.96005 16.4312 9.04186L9.82553 15.6884L9.79966 15.7125C9.625 15.8755 9.42967 16.0577 9.20125 16.1336L9.17795 16.1412C8.70979 16.2986 8.35 15.9421 8.04984 15.6409L6.33554 13.9526L4.50285 12.1711C4.31489 11.9573 4.21569 11.8363 4.3662 11.5745L4.3807 11.5496C4.53453 11.2797 4.762 11.0528 4.9828 10.8325L4.98289 10.8324C5.01584 10.7995 5.04863 10.7668 5.08101 10.7341L5.65676 10.1173C6.36592 9.31534 6.71601 9.69512 7.22762 10.2501C7.3271 10.358 7.43269 10.4726 7.54821 10.5863L8.91175 11.8951L13.4195 7.48081C13.5219 7.38053 13.6493 7.24427 13.7919 7.09179ZM10.9993 20.6764C16.3455 20.6764 20.6793 16.3425 20.6793 10.9964C20.6793 5.65029 16.3455 1.31641 10.9993 1.31641C5.65322 1.31641 1.31934 5.65029 1.31934 10.9964C1.31934 16.3425 5.65322 20.6764 10.9993 20.6764Z" fill="#D9D9D9"/>
</svg>
