<svg width="17" height="19" viewBox="0 0 17 19" fill="none" xmlns="http://www.w3.org/2000/svg">
<path d="M5.13542 1.6668H4.95833C5.05573 1.6668 5.13542 1.58346 5.13542 1.4816V1.6668ZM5.13542 1.6668H11.8646V1.4816C11.8646 1.58346 11.9443 1.6668 12.0417 1.6668H11.8646V3.3336H13.4583V1.4816C13.4583 0.664405 12.823 0 12.0417 0H4.95833C4.17695 0 3.54167 0.664405 3.54167 1.4816V3.3336H5.13542V1.6668ZM16.2917 3.3336H0.708333C0.316536 3.3336 0 3.66465 0 4.0744V4.8152C0 4.91706 0.0796875 5.0004 0.177083 5.0004H1.51406L2.06081 17.1079C2.09622 17.8973 2.72044 18.52 3.47526 18.52H13.5247C14.2818 18.52 14.9038 17.8996 14.9392 17.1079L15.4859 5.0004H16.8229C16.9203 5.0004 17 4.91706 17 4.8152V4.0744C17 3.66465 16.6835 3.3336 16.2917 3.3336ZM13.3543 16.8532H3.6457L3.11003 5.0004H13.89L13.3543 16.8532Z" fill="#EDEDED"/>
</svg>
