<svg width="18" height="18" viewBox="0 0 18 18" fill="none" xmlns="http://www.w3.org/2000/svg">
<path d="M8.9992 12.2002C4.3912 12.2002 3.5752 7.60819 3.4312 3.96499C3.3904 2.95219 3.3704 2.44499 3.7512 1.97699C4.1312 1.50819 4.5864 1.43139 5.4976 1.27779C6.65505 1.08809 7.82631 0.995234 8.9992 1.00019C10.4264 1.00019 11.6016 1.12579 12.5008 1.27779C13.412 1.43139 13.8672 1.50819 14.248 1.97699C14.6288 2.44579 14.608 2.95219 14.568 3.96499C14.424 7.60739 13.608 12.2002 9 12.2002H8.9992Z" stroke="#A5FFE1" stroke-width="0.75"/>
<path d="M9 12.2031V14.6031" stroke="#A5FFE1" stroke-width="0.75" stroke-linecap="round"/>
<path d="M11.7992 17H6.19922L6.47122 15.6432C6.50745 15.4619 6.60536 15.2988 6.74829 15.1815C6.89122 15.0642 7.07034 15.0001 7.25522 15H10.7432C10.9281 15.0001 11.1072 15.0642 11.2502 15.1815C11.3931 15.2988 11.491 15.4619 11.5272 15.6432L11.7992 17Z" stroke="#A5FFE1" stroke-width="0.75" stroke-linecap="round" stroke-linejoin="round"/>
<path d="M14.6 3.40234L15.3592 3.65514C16.1512 3.91914 16.5472 4.05114 16.7736 4.36554C17 4.67994 17 5.09754 17 5.93194V5.99034C17 6.67834 17 7.02314 16.8344 7.30474C16.6688 7.58634 16.3672 7.75354 15.7656 8.08874L13.4 9.40234M3.4 3.40234L2.6408 3.65514C1.8488 3.91914 1.4528 4.05114 1.2264 4.36554C1 4.67994 1 5.09834 1 5.93194V5.99034C1 6.67834 1 7.02314 1.1656 7.30474C1.3312 7.58634 1.6328 7.75354 2.2344 8.08874L4.6 9.40234M8.3168 4.22074C8.6208 3.67434 8.7728 3.40234 9 3.40234C9.2272 3.40234 9.3792 3.67434 9.6832 4.22074L9.7616 4.36154C9.848 4.51674 9.8912 4.59354 9.9584 4.64474C10.0264 4.69594 10.1104 4.71514 10.2784 4.75274L10.4304 4.78794C11.0208 4.92154 11.316 4.98794 11.3864 5.21354C11.4568 5.43994 11.2552 5.67514 10.8528 6.14554L10.7488 6.26714C10.6344 6.40074 10.5768 6.46714 10.5512 6.55034C10.5256 6.63354 10.5344 6.72234 10.5512 6.90074L10.5672 7.06314C10.628 7.69114 10.6584 8.00554 10.4752 8.14474C10.2912 8.28394 10.0144 8.15674 9.4616 7.90234L9.3192 7.83674C9.1616 7.76474 9.0832 7.72874 9 7.72874C8.9168 7.72874 8.8384 7.76474 8.6808 7.83674L8.5384 7.90234C7.9856 8.15754 7.7088 8.28394 7.5248 8.14474C7.3408 8.00554 7.372 7.69114 7.4328 7.06314L7.4488 6.90074C7.4656 6.72234 7.4744 6.63354 7.4488 6.55034C7.4232 6.46794 7.3656 6.40074 7.2512 6.26714L7.1472 6.14554C6.7448 5.67514 6.5432 5.43994 6.6136 5.21354C6.684 4.98794 6.9792 4.92154 7.5696 4.78794L7.7216 4.75274C7.8896 4.71514 7.9736 4.69674 8.0416 4.64474C8.1088 4.59354 8.152 4.51674 8.2384 4.36154L8.3168 4.22074Z" stroke="#A5FFE1" stroke-width="0.75"/>
<path d="M13.7992 17H4.19922" stroke="#A5FFE1" stroke-width="0.75" stroke-linecap="round"/>
</svg>
