<svg width="25" height="27" viewBox="0 0 25 27" fill="none" xmlns="http://www.w3.org/2000/svg">
<path d="M24.7163 19.7238C23.9935 18.4828 22.9191 14.9714 22.9191 10.3851C22.9191 7.63077 21.8215 4.98929 19.8676 3.04171C17.9138 1.09414 15.2638 0 12.5007 0C9.7375 0 7.08752 1.09414 5.13368 3.04171C3.17984 4.98929 2.08218 7.63077 2.08218 10.3851C2.08218 14.9727 1.00648 18.4828 0.283696 19.7238C0.0991206 20.0393 0.00127013 20.3978 1.2282e-05 20.763C-0.00124557 21.1282 0.0941339 21.4873 0.276532 21.8041C0.45893 22.1208 0.721896 22.3841 1.03891 22.5672C1.35593 22.7503 1.71578 22.8469 2.08218 22.8471H7.3969C7.63727 24.0196 8.27651 25.0732 9.2065 25.83C10.1365 26.5867 11.3002 27 12.5007 27C13.7011 27 14.8648 26.5867 15.7948 25.83C16.7248 25.0732 17.364 24.0196 17.6044 22.8471H22.9191C23.2854 22.8466 23.6451 22.7499 23.9619 22.5667C24.2788 22.3835 24.5415 22.1202 24.7238 21.8035C24.906 21.4868 25.0013 21.1278 25 20.7627C24.9987 20.3976 24.9008 20.0392 24.7163 19.7238ZM12.5007 24.9242C11.8545 24.924 11.2242 24.7241 10.6967 24.3522C10.1691 23.9802 9.77022 23.4544 9.55483 22.8471H15.4465C15.2311 23.4544 14.8322 23.9802 14.3046 24.3522C13.7771 24.7241 13.1468 24.924 12.5007 24.9242ZM2.08218 20.7701C3.08496 19.0514 4.16588 15.0687 4.16588 10.3851C4.16588 8.18163 5.044 6.06845 6.60708 4.51038C8.17015 2.95232 10.2901 2.07701 12.5007 2.07701C14.7112 2.07701 16.8312 2.95232 18.3942 4.51038C19.9573 6.06845 20.8354 8.18163 20.8354 10.3851C20.8354 15.0648 21.9137 19.0475 22.9191 20.7701H2.08218Z" fill="#6CEFC3"/>
</svg>
